# xmcd
#
# Track frame offsets: 
#        150
#        18502
#        42107
#        60472
#        84950
#        104785
#        133442
#        152652
#        166905
#        186352
#        216115
#        239635
#        259592
#        279520
#        295912
#        312700
#        330502
#
# Disc length: 4626 seconds
#
# Revision: 0
# Processed by: cddbd v1.4PL0 Copyright (c) Steve Scherf et al.
# Submitted via: ExactAudioCopy v0.95a2
#
DISCID=fe121011
DTITLE=Various Artist - Beachlife Vol2 - 1
DYEAR=2003
DGENRE=Easy Listening
TTITLE0=In The Mood For Love
TTITLE1=Get Misunderstood
TTITLE2=Maria
TTITLE3=Letting Go
TTITLE4=Mango Di Bongo
TTITLE5=Love Magic
TTITLE6=No Jive
TTITLE7=Magic
TTITLE8=Latin Player
TTITLE9=Core Nire-Azoia Dub Mix
TTITLE10=Way To Alahambra
TTITLE11=On My Own
TTITLE12=Johnie Red
TTITLE13=Chase The Blues
TTITLE14=To Me-Bigga Bush Mix
TTITLE15=TriColour
TTITLE16=Shake It Loose
EXTD=
EXTT0=
EXTT1=
EXTT2=
EXTT3=
EXTT4=
EXTT5=
EXTT6=
EXTT7=
EXTT8=
EXTT9=
EXTT10=
EXTT11=
EXTT12=
EXTT13=
EXTT14=
EXTT15=
EXTT16=
PLAYORDER=
